<svg xmlns="http://www.w3.org/2000/svg" viewBox="0 0 400 250" fill="none">
  <rect width="400" height="250" fill="#f6f8fa"/>

  <!-- Header -->
  <rect x="0" y="0" width="400" height="50" fill="#24292e"/>
  <circle cx="30" cy="25" r="15" fill="#f0f6fc"/>
  <path d="M25 22c0-2.8 2.2-5 5-5s5 2.2 5 5c0 2.2-1.3 4-3.2 4.8v2.4c1.9.3 3.2 2 3.2 4v.8c0 1.1-.9 2-2 2h-6c-1.1 0-2-.9-2-2v-.8c0-2 1.3-3.7 3.2-4v-2.4c-1.9-.8-3.2-2.6-3.2-4.8z" fill="#24292e"/>

  <!-- PR Title -->
  <rect x="20" y="65" width="360" height="35" rx="4" fill="white" stroke="#d0d7de"/>
  <circle cx="40" cy="82" r="8" fill="#238636"/>
  <path d="M36 82l3 3 5-5" stroke="white" stroke-width="2" fill="none"/>
  <rect x="60" y="76" width="200" height="12" rx="2" fill="#24292e"/>

  <!-- Open badge -->
  <rect x="310" y="72" width="50" height="22" rx="11" fill="#238636"/>
  <text x="335" y="88" font-family="system-ui" font-size="11" fill="white" text-anchor="middle">Open</text>

  <!-- Stats -->
  <rect x="20" y="115" width="360" height="45" rx="4" fill="white" stroke="#d0d7de"/>
  <text x="40" y="142" font-family="system-ui" font-size="12" fill="#57606a">+142</text>
  <rect x="80" y="132" width="60" height="8" rx="2" fill="#238636"/>
  <text x="160" y="142" font-family="system-ui" font-size="12" fill="#57606a">-23</text>
  <rect x="190" y="132" width="20" height="8" rx="2" fill="#da3633"/>
  <text x="280" y="142" font-family="system-ui" font-size="12" fill="#57606a">3 files changed</text>

  <!-- Files list -->
  <rect x="20" y="175" width="360" height="60" rx="4" fill="white" stroke="#d0d7de"/>
  <rect x="35" y="190" width="12" height="12" rx="2" fill="#238636"/>
  <text x="55" y="200" font-family="monospace" font-size="11" fill="#57606a">src/components/Header.js</text>
  <rect x="35" y="210" width="12" height="12" rx="2" fill="#238636"/>
  <text x="55" y="220" font-family="monospace" font-size="11" fill="#57606a">src/styles/header.css</text>
</svg>